<mxfile host="app.diagrams.net" modified="2021-05-08T14:21:44.407Z" agent="5.0 (Windows NT 10.0; Win64; x64) AppleWebKit/537.36 (KHTML, like Gecko) Chrome/90.0.4430.93 Safari/537.36" etag="I-Ak1dbiOrZhqPucQVd-" version="14.6.11" type="github">
  <diagram id="muhJKQLWhZmSRMR4RzwN" name="Page-1">
    <mxGraphModel dx="347" dy="1362" grid="1" gridSize="10" guides="1" tooltips="1" connect="1" arrows="1" fold="1" page="1" pageScale="1" pageWidth="827" pageHeight="1169" math="0" shadow="0">
      <root>
        <mxCell id="0" />
        <mxCell id="1" parent="0" />
        <mxCell id="3F8pLctKM-UeTf3i-RXt-1" value="" style="verticalLabelPosition=bottom;verticalAlign=top;html=1;shadow=0;dashed=0;strokeWidth=1;shape=mxgraph.android.phone2;strokeColor=#c0c0c0;" parent="1" vertex="1">
          <mxGeometry x="110" y="40" width="200" height="380" as="geometry" />
        </mxCell>
        <mxCell id="3F8pLctKM-UeTf3i-RXt-2" value="" style="verticalLabelPosition=bottom;verticalAlign=top;html=1;shadow=0;dashed=0;strokeWidth=1;shape=mxgraph.android.phone2;strokeColor=#c0c0c0;" parent="1" vertex="1">
          <mxGeometry x="450" y="40" width="200" height="380" as="geometry" />
        </mxCell>
        <mxCell id="3F8pLctKM-UeTf3i-RXt-22" value="" style="shape=image;html=1;verticalAlign=top;verticalLabelPosition=bottom;labelBackgroundColor=#ffffff;imageAspect=0;aspect=fixed;image=https://cdn4.iconfinder.com/data/icons/basic-ui-2-line/32/person-people-man-profile-human-128.png;strokeWidth=1;" parent="1" vertex="1">
          <mxGeometry x="130" y="90" width="50" height="50" as="geometry" />
        </mxCell>
        <mxCell id="3F8pLctKM-UeTf3i-RXt-23" value="CREATE &lt;br&gt;YOUR PROFILE" style="text;html=1;resizable=0;autosize=1;align=center;verticalAlign=middle;points=[];fillColor=none;strokeColor=none;rounded=0;" parent="1" vertex="1">
          <mxGeometry x="180" y="100" width="100" height="30" as="geometry" />
        </mxCell>
        <mxCell id="3F8pLctKM-UeTf3i-RXt-27" value="" style="strokeWidth=1;shadow=0;dashed=0;align=center;html=1;shape=mxgraph.mockup.text.textBox;fontColor=#666666;align=left;fontSize=17;spacingLeft=4;spacingTop=-3;strokeColor=#666666;mainText=" parent="1" vertex="1">
          <mxGeometry x="220" y="245" width="70" height="15" as="geometry" />
        </mxCell>
        <mxCell id="3F8pLctKM-UeTf3i-RXt-29" value="&lt;font style=&quot;font-size: 10px&quot;&gt;Username&lt;/font&gt;" style="strokeWidth=1;shadow=0;dashed=0;align=center;html=1;shape=mxgraph.mockup.text.textBox;fontColor=#666666;align=left;fontSize=17;spacingLeft=4;spacingTop=-3;strokeColor=#666666;mainText=" parent="1" vertex="1">
          <mxGeometry x="220" y="155" width="70" height="15" as="geometry" />
        </mxCell>
        <mxCell id="3F8pLctKM-UeTf3i-RXt-30" value="&lt;span style=&quot;font-size: 10px&quot;&gt;Violet&lt;/span&gt;" style="strokeWidth=1;shadow=0;dashed=0;align=left;html=1;shape=mxgraph.mockup.text.textBox;fontColor=#666666;align=left;fontSize=10;spacingLeft=4;spacingTop=-3;strokeColor=#666666;mainText=" parent="1" vertex="1">
          <mxGeometry x="220" y="225" width="70" height="15" as="geometry" />
        </mxCell>
        <mxCell id="3F8pLctKM-UeTf3i-RXt-32" value="" style="strokeWidth=1;shadow=0;dashed=0;align=center;html=1;shape=mxgraph.mockup.text.textBox;fontColor=#666666;align=left;fontSize=17;spacingLeft=4;spacingTop=-3;strokeColor=#666666;mainText=" parent="1" vertex="1">
          <mxGeometry x="220" y="265" width="70" height="15" as="geometry" />
        </mxCell>
        <mxCell id="3F8pLctKM-UeTf3i-RXt-33" value="&lt;span style=&quot;font-size: 10px&quot;&gt;baby Bear&lt;/span&gt;" style="strokeWidth=1;shadow=0;dashed=0;align=center;html=1;shape=mxgraph.mockup.text.textBox;fontColor=#666666;align=left;fontSize=17;spacingLeft=4;spacingTop=-3;strokeColor=#666666;mainText=" parent="1" vertex="1">
          <mxGeometry x="220" y="285" width="70" height="15" as="geometry" />
        </mxCell>
        <mxCell id="3F8pLctKM-UeTf3i-RXt-34" value="&lt;font style=&quot;font-size: 8px&quot;&gt;Username&lt;/font&gt;" style="text;html=1;resizable=0;autosize=1;align=center;verticalAlign=middle;points=[];fillColor=none;strokeColor=none;rounded=0;" parent="1" vertex="1">
          <mxGeometry x="130" y="150" width="50" height="20" as="geometry" />
        </mxCell>
        <mxCell id="3F8pLctKM-UeTf3i-RXt-35" value="&lt;font style=&quot;font-size: 8px&quot;&gt;Password&lt;/font&gt;" style="text;html=1;resizable=0;autosize=1;align=center;verticalAlign=middle;points=[];fillColor=none;strokeColor=none;rounded=0;" parent="1" vertex="1">
          <mxGeometry x="130" y="170" width="50" height="20" as="geometry" />
        </mxCell>
        <mxCell id="3F8pLctKM-UeTf3i-RXt-37" value="********" style="strokeWidth=1;shadow=0;dashed=0;align=center;html=1;shape=mxgraph.mockup.forms.pwField;strokeColor=#999999;mainText=;align=left;fontColor=#666666;fontSize=17;spacingLeft=3;" parent="1" vertex="1">
          <mxGeometry x="220" y="175" width="70" height="15" as="geometry" />
        </mxCell>
        <mxCell id="3F8pLctKM-UeTf3i-RXt-38" value="&lt;span style=&quot;font-size: 8px&quot;&gt;Favorite color&lt;/span&gt;" style="text;html=1;resizable=0;autosize=1;align=center;verticalAlign=middle;points=[];fillColor=none;strokeColor=none;rounded=0;" parent="1" vertex="1">
          <mxGeometry x="130" y="220" width="60" height="20" as="geometry" />
        </mxCell>
        <mxCell id="3F8pLctKM-UeTf3i-RXt-39" value="&lt;span style=&quot;font-size: 8px&quot;&gt;Clothing&lt;/span&gt;" style="text;html=1;resizable=0;autosize=1;align=center;verticalAlign=middle;points=[];fillColor=none;strokeColor=none;rounded=0;" parent="1" vertex="1">
          <mxGeometry x="130" y="240" width="40" height="20" as="geometry" />
        </mxCell>
        <mxCell id="3F8pLctKM-UeTf3i-RXt-40" value="&lt;span style=&quot;font-size: 8px&quot;&gt;Favorite food&lt;/span&gt;" style="text;html=1;resizable=0;autosize=1;align=center;verticalAlign=middle;points=[];fillColor=none;strokeColor=none;rounded=0;" parent="1" vertex="1">
          <mxGeometry x="130" y="260" width="60" height="20" as="geometry" />
        </mxCell>
        <mxCell id="3F8pLctKM-UeTf3i-RXt-41" value="&lt;span style=&quot;font-size: 8px&quot;&gt;Object of childhood&lt;/span&gt;" style="text;html=1;resizable=0;autosize=1;align=center;verticalAlign=middle;points=[];fillColor=none;strokeColor=none;rounded=0;" parent="1" vertex="1">
          <mxGeometry x="130" y="280" width="80" height="20" as="geometry" />
        </mxCell>
        <mxCell id="3F8pLctKM-UeTf3i-RXt-58" value="SIGN UP" style="strokeWidth=1;shadow=0;dashed=0;align=center;html=1;shape=mxgraph.mockup.buttons.button;strokeColor=#666666;fontColor=#ffffff;mainText=;buttonStyle=round;fontSize=10;fontStyle=1;fillColor=#008cff;whiteSpace=wrap;" parent="1" vertex="1">
          <mxGeometry x="177.5" y="340" width="65" height="20" as="geometry" />
        </mxCell>
        <mxCell id="3F8pLctKM-UeTf3i-RXt-59" value="&lt;font style=&quot;font-size: 14px&quot;&gt;Creazione profilo utente con informazioni&lt;br&gt;che ne delineano la personalitÃ &lt;/font&gt;" style="text;html=1;resizable=0;autosize=1;align=center;verticalAlign=middle;points=[];fillColor=none;strokeColor=none;rounded=0;fontSize=10;" parent="1" vertex="1">
          <mxGeometry x="75" y="-30" width="270" height="30" as="geometry" />
        </mxCell>
        <mxCell id="46dSbzAREaTx-z17Ad4z-2" value="&lt;font style=&quot;font-size: 8px&quot;&gt;Confirm password&lt;/font&gt;" style="text;html=1;resizable=0;autosize=1;align=center;verticalAlign=middle;points=[];fillColor=none;strokeColor=none;rounded=0;" vertex="1" parent="1">
          <mxGeometry x="130" y="190" width="80" height="20" as="geometry" />
        </mxCell>
        <mxCell id="46dSbzAREaTx-z17Ad4z-3" value="********" style="strokeWidth=1;shadow=0;dashed=0;align=center;html=1;shape=mxgraph.mockup.forms.pwField;strokeColor=#999999;mainText=;align=left;fontColor=#666666;fontSize=17;spacingLeft=3;" vertex="1" parent="1">
          <mxGeometry x="220" y="195" width="70" height="15" as="geometry" />
        </mxCell>
        <mxCell id="46dSbzAREaTx-z17Ad4z-5" value="" style="endArrow=classic;html=1;" edge="1" parent="1">
          <mxGeometry width="50" height="50" relative="1" as="geometry">
            <mxPoint x="354" y="232.20999999999998" as="sourcePoint" />
            <mxPoint x="414" y="232.20999999999998" as="targetPoint" />
          </mxGeometry>
        </mxCell>
        <mxCell id="46dSbzAREaTx-z17Ad4z-6" value="" style="verticalLabelPosition=bottom;verticalAlign=top;html=1;shadow=0;dashed=0;strokeWidth=1;shape=mxgraph.android.phone2;strokeColor=#c0c0c0;" vertex="1" parent="1">
          <mxGeometry x="270" y="480" width="200" height="390" as="geometry" />
        </mxCell>
        <mxCell id="46dSbzAREaTx-z17Ad4z-7" value="" style="endArrow=classic;html=1;" edge="1" parent="1">
          <mxGeometry width="50" height="50" relative="1" as="geometry">
            <mxPoint x="430" y="400" as="sourcePoint" />
            <mxPoint x="400" y="450" as="targetPoint" />
          </mxGeometry>
        </mxCell>
        <mxCell id="46dSbzAREaTx-z17Ad4z-9" value="" style="shape=image;html=1;verticalAlign=top;verticalLabelPosition=bottom;labelBackgroundColor=#ffffff;imageAspect=0;aspect=fixed;image=https://cdn4.iconfinder.com/data/icons/multimedia-75/512/multimedia-49-128.png" vertex="1" parent="1">
          <mxGeometry x="470" y="85" width="55" height="55" as="geometry" />
        </mxCell>
        <mxCell id="46dSbzAREaTx-z17Ad4z-10" value="TAKE A PICTURE &lt;br&gt;OF YOUR WORK" style="text;html=1;resizable=0;autosize=1;align=center;verticalAlign=middle;points=[];fillColor=none;strokeColor=none;rounded=0;" vertex="1" parent="1">
          <mxGeometry x="525" y="100" width="110" height="30" as="geometry" />
        </mxCell>
        <mxCell id="46dSbzAREaTx-z17Ad4z-12" value="" style="rounded=0;whiteSpace=wrap;html=1;" vertex="1" parent="1">
          <mxGeometry x="490" y="176.25" width="120" height="112.5" as="geometry" />
        </mxCell>
        <mxCell id="46dSbzAREaTx-z17Ad4z-13" value="" style="ellipse;whiteSpace=wrap;html=1;aspect=fixed;" vertex="1" parent="1">
          <mxGeometry x="535" y="330" width="30" height="30" as="geometry" />
        </mxCell>
        <mxCell id="46dSbzAREaTx-z17Ad4z-18" value="" style="shape=image;html=1;verticalAlign=top;verticalLabelPosition=bottom;labelBackgroundColor=#ffffff;imageAspect=0;aspect=fixed;image=https://cdn4.iconfinder.com/data/icons/ionicons/512/icon-image-128.png" vertex="1" parent="1">
          <mxGeometry x="295" y="568" width="50" height="50" as="geometry" />
        </mxCell>
        <mxCell id="46dSbzAREaTx-z17Ad4z-21" value="" style="shape=image;html=1;verticalAlign=top;verticalLabelPosition=bottom;labelBackgroundColor=#ffffff;imageAspect=0;aspect=fixed;image=https://cdn4.iconfinder.com/data/icons/ionicons/512/icon-image-128.png" vertex="1" parent="1">
          <mxGeometry x="295" y="640" width="50" height="50" as="geometry" />
        </mxCell>
        <mxCell id="46dSbzAREaTx-z17Ad4z-23" value="" style="shape=image;html=1;verticalAlign=top;verticalLabelPosition=bottom;labelBackgroundColor=#ffffff;imageAspect=0;aspect=fixed;image=https://cdn4.iconfinder.com/data/icons/ionicons/512/icon-image-128.png" vertex="1" parent="1">
          <mxGeometry x="395" y="640" width="50" height="50" as="geometry" />
        </mxCell>
        <mxCell id="46dSbzAREaTx-z17Ad4z-24" value="" style="shape=image;html=1;verticalAlign=top;verticalLabelPosition=bottom;labelBackgroundColor=#ffffff;imageAspect=0;aspect=fixed;image=https://cdn4.iconfinder.com/data/icons/ionicons/512/icon-image-128.png" vertex="1" parent="1">
          <mxGeometry x="345" y="640" width="50" height="50" as="geometry" />
        </mxCell>
        <mxCell id="46dSbzAREaTx-z17Ad4z-26" value="" style="shape=image;html=1;verticalAlign=top;verticalLabelPosition=bottom;labelBackgroundColor=#ffffff;imageAspect=0;aspect=fixed;image=https://cdn4.iconfinder.com/data/icons/ionicons/512/icon-image-128.png" vertex="1" parent="1">
          <mxGeometry x="345" y="568" width="50" height="50" as="geometry" />
        </mxCell>
        <mxCell id="46dSbzAREaTx-z17Ad4z-34" value="" style="shape=image;html=1;verticalAlign=top;verticalLabelPosition=bottom;labelBackgroundColor=#ffffff;imageAspect=0;aspect=fixed;image=https://cdn4.iconfinder.com/data/icons/multimedia-75/512/multimedia-10-128.png" vertex="1" parent="1">
          <mxGeometry x="300" y="618" width="10" height="10" as="geometry" />
        </mxCell>
        <mxCell id="46dSbzAREaTx-z17Ad4z-37" value="RESULTS&lt;br&gt;" style="text;html=1;resizable=0;autosize=1;align=center;verticalAlign=middle;points=[];fillColor=none;strokeColor=none;rounded=0;" vertex="1" parent="1">
          <mxGeometry x="280" y="530" width="70" height="20" as="geometry" />
        </mxCell>
        <mxCell id="46dSbzAREaTx-z17Ad4z-38" value="" style="shape=image;html=1;verticalAlign=top;verticalLabelPosition=bottom;labelBackgroundColor=#ffffff;imageAspect=0;aspect=fixed;image=https://cdn4.iconfinder.com/data/icons/ionicons/512/icon-image-128.png" vertex="1" parent="1">
          <mxGeometry x="395" y="568" width="50" height="50" as="geometry" />
        </mxCell>
        <mxCell id="46dSbzAREaTx-z17Ad4z-41" value="" style="shape=image;html=1;verticalAlign=top;verticalLabelPosition=bottom;labelBackgroundColor=#ffffff;imageAspect=0;aspect=fixed;image=https://cdn4.iconfinder.com/data/icons/multimedia-75/512/multimedia-10-128.png" vertex="1" parent="1">
          <mxGeometry x="350" y="618" width="10" height="10" as="geometry" />
        </mxCell>
        <mxCell id="46dSbzAREaTx-z17Ad4z-42" value="" style="shape=image;html=1;verticalAlign=top;verticalLabelPosition=bottom;labelBackgroundColor=#ffffff;imageAspect=0;aspect=fixed;image=https://cdn4.iconfinder.com/data/icons/multimedia-75/512/multimedia-10-128.png" vertex="1" parent="1">
          <mxGeometry x="400" y="618" width="10" height="10" as="geometry" />
        </mxCell>
        <mxCell id="46dSbzAREaTx-z17Ad4z-43" value="" style="shape=image;html=1;verticalAlign=top;verticalLabelPosition=bottom;labelBackgroundColor=#ffffff;imageAspect=0;aspect=fixed;image=https://cdn4.iconfinder.com/data/icons/multimedia-75/512/multimedia-10-128.png" vertex="1" parent="1">
          <mxGeometry x="300" y="690" width="10" height="10" as="geometry" />
        </mxCell>
        <mxCell id="46dSbzAREaTx-z17Ad4z-44" value="" style="shape=image;html=1;verticalAlign=top;verticalLabelPosition=bottom;labelBackgroundColor=#ffffff;imageAspect=0;aspect=fixed;image=https://cdn4.iconfinder.com/data/icons/multimedia-75/512/multimedia-10-128.png" vertex="1" parent="1">
          <mxGeometry x="350" y="690" width="10" height="10" as="geometry" />
        </mxCell>
        <mxCell id="46dSbzAREaTx-z17Ad4z-48" value="" style="shape=image;html=1;verticalAlign=top;verticalLabelPosition=bottom;labelBackgroundColor=#ffffff;imageAspect=0;aspect=fixed;image=https://cdn4.iconfinder.com/data/icons/multimedia-75/512/multimedia-10-128.png" vertex="1" parent="1">
          <mxGeometry x="400" y="690" width="10" height="10" as="geometry" />
        </mxCell>
        <mxCell id="46dSbzAREaTx-z17Ad4z-49" value="Tips on techniques&lt;br&gt;" style="text;html=1;resizable=0;autosize=1;align=center;verticalAlign=middle;points=[];fillColor=none;strokeColor=none;rounded=0;" vertex="1" parent="1">
          <mxGeometry x="275" y="720" width="120" height="20" as="geometry" />
        </mxCell>
        <mxCell id="46dSbzAREaTx-z17Ad4z-64" value="&lt;font style=&quot;font-size: 7px&quot;&gt;Lorem ipsum dolor sit amet, consectetur adipisicing elit, sed do eiusmod tempor incididunt ut labore et dolore magna aliqua. Ut enim ad minim veniam, quis nostrud exercitation ullamco laboris nisi ut aliquip ex ea commodo consequat.&amp;nbsp;&lt;/font&gt;" style="text;spacingTop=-5;whiteSpace=wrap;html=1;align=left;fontSize=12;fontFamily=Helvetica;fillColor=none;strokeColor=none;" vertex="1" parent="1">
          <mxGeometry x="285" y="740" width="170" height="90" as="geometry" />
        </mxCell>
        <mxCell id="46dSbzAREaTx-z17Ad4z-65" value="&lt;font style=&quot;font-size: 8px&quot;&gt;Artist&lt;/font&gt;" style="text;html=1;resizable=0;autosize=1;align=center;verticalAlign=middle;points=[];fillColor=none;strokeColor=none;rounded=0;" vertex="1" parent="1">
          <mxGeometry x="310" y="611" width="30" height="20" as="geometry" />
        </mxCell>
        <mxCell id="46dSbzAREaTx-z17Ad4z-66" value="&lt;font style=&quot;font-size: 8px&quot;&gt;Artist&lt;/font&gt;" style="text;html=1;resizable=0;autosize=1;align=center;verticalAlign=middle;points=[];fillColor=none;strokeColor=none;rounded=0;" vertex="1" parent="1">
          <mxGeometry x="360" y="611" width="30" height="20" as="geometry" />
        </mxCell>
        <mxCell id="46dSbzAREaTx-z17Ad4z-67" value="&lt;font style=&quot;font-size: 8px&quot;&gt;Artist&lt;/font&gt;" style="text;html=1;resizable=0;autosize=1;align=center;verticalAlign=middle;points=[];fillColor=none;strokeColor=none;rounded=0;" vertex="1" parent="1">
          <mxGeometry x="410" y="611" width="30" height="20" as="geometry" />
        </mxCell>
        <mxCell id="46dSbzAREaTx-z17Ad4z-68" value="&lt;font style=&quot;font-size: 8px&quot;&gt;Artist&lt;/font&gt;" style="text;html=1;resizable=0;autosize=1;align=center;verticalAlign=middle;points=[];fillColor=none;strokeColor=none;rounded=0;" vertex="1" parent="1">
          <mxGeometry x="410" y="683" width="30" height="20" as="geometry" />
        </mxCell>
        <mxCell id="46dSbzAREaTx-z17Ad4z-69" value="&lt;font style=&quot;font-size: 8px&quot;&gt;Artist&lt;/font&gt;" style="text;html=1;resizable=0;autosize=1;align=center;verticalAlign=middle;points=[];fillColor=none;strokeColor=none;rounded=0;" vertex="1" parent="1">
          <mxGeometry x="360" y="683" width="30" height="20" as="geometry" />
        </mxCell>
        <mxCell id="46dSbzAREaTx-z17Ad4z-70" value="&lt;font style=&quot;font-size: 8px&quot;&gt;Artist&lt;/font&gt;" style="text;html=1;resizable=0;autosize=1;align=center;verticalAlign=middle;points=[];fillColor=none;strokeColor=none;rounded=0;" vertex="1" parent="1">
          <mxGeometry x="310" y="683" width="30" height="20" as="geometry" />
        </mxCell>
      </root>
    </mxGraphModel>
  </diagram>
</mxfile>
